<svg xmlns="http://www.w3.org/2000/svg" xmlns:xlink="http://www.w3.org/1999/xlink" width="500" zoomAndPan="magnify" viewBox="0 0 375 374.999991" height="500" preserveAspectRatio="xMidYMid meet" version="1.0"><path fill="#1a1a1a" d="M 84.882812 93.53125 C 87.910156 90.503906 92.511719 95.109375 89.488281 98.144531 C 84.777344 102.855469 89.980469 111.777344 84.242188 112.203125 C 77.914062 112.671875 80.632812 97.796875 84.882812 93.53125 Z M 92.808594 277.871094 C 100.210938 277.871094 100.210938 289.144531 92.808594 289.144531 C 85.402344 289.144531 85.402344 277.871094 92.808594 277.871094 Z M 275.589844 277.871094 C 268.179688 277.871094 268.179688 289.144531 275.589844 289.144531 C 282.996094 289.144531 282.996094 277.871094 275.589844 277.871094 Z M 167.488281 197.835938 L 76.105469 281.71875 C 74.484375 283.253906 74.613281 285.292969 76.367188 287 L 89.960938 300.648438 C 91.296875 301.910156 93.386719 301.835938 94.773438 300.417969 L 178.035156 209.371094 Z M 183.742188 215.613281 L 100.035156 307.050781 C 95.265625 311.238281 88.214844 310.929688 83.644531 306.25 L 69.671875 292.238281 C 65.441406 288 65.390625 280.105469 70.417969 275.496094 L 161.800781 191.613281 L 143.339844 171.425781 C 114.957031 179 77.625 149.488281 70.601562 117.101562 C 60.695312 71.410156 110.714844 66.574219 142.683594 98.605469 C 156.558594 112.5 167.46875 133.917969 162.628906 152.097656 L 183.738281 171.484375 L 209.875 147.492188 L 210.113281 121.058594 C 210.160156 115.855469 212.203125 111.328125 216.070312 107.875 L 261.875 66.96875 C 265.414062 63.808594 269.53125 64.746094 272.925781 68.007812 C 276.265625 71.164062 280.183594 74.859375 275.367188 80.390625 L 251.097656 108.238281 L 278.585938 83.707031 C 281.527344 81.070312 286.082031 81.203125 288.871094 84.003906 L 288.859375 84.007812 C 292.695312 87.675781 297.734375 91.582031 292.414062 97.566406 L 267.933594 125.09375 L 295.726562 100.785156 C 299.296875 97.664062 303.351562 98.632812 306.707031 101.851562 C 310.058594 105.019531 314.03125 108.777344 309.117188 114.300781 L 268.289062 160.191406 C 264.847656 164.066406 260.324219 166.121094 255.128906 166.164062 L 228.746094 166.402344 L 205.675781 191.632812 L 297.996094 276.4375 C 302.203125 281.242188 301.851562 288.390625 297.167969 292.894531 L 283.207031 306.867188 C 278.394531 311.285156 270.917969 310.929688 266.515625 306.117188 Z M 199.46875 185.929688 L 223.777344 159.347656 C 224.597656 158.449219 225.71875 157.988281 226.851562 157.976562 L 255.0625 157.71875 C 257.820312 157.695312 260.128906 156.648438 261.980469 154.566406 L 302.375 109.160156 C 303.851562 107.503906 301.902344 106.429688 300.613281 107.722656 L 263.128906 140.503906 C 258.28125 144.75 255.667969 140.777344 252.707031 137.8125 C 250.527344 135.632812 250.421875 132.058594 252.476562 129.75 L 285.40625 92.71875 C 286.90625 91.039062 284.742188 89.546875 283.082031 91.027344 L 246.453125 123.722656 C 241.605469 128.046875 238.945312 124.027344 235.980469 121.058594 C 233.808594 118.886719 233.703125 115.367188 235.722656 113.046875 L 268.511719 75.414062 C 270.121094 73.566406 268.152344 72.558594 266.839844 73.878906 L 221.6875 114.199219 C 219.609375 116.058594 218.5625 118.359375 218.539062 121.128906 L 218.28125 149.394531 C 218.273438 150.667969 217.703125 151.804688 216.800781 152.566406 L 189.96875 177.203125 Z M 141.054688 91.496094 C 136.078125 93.980469 132.308594 86.40625 137.285156 83.917969 C 167.640625 68.761719 203.3125 67.761719 234.472656 81.199219 C 239.570312 83.390625 236.226562 91.167969 231.140625 88.976562 C 202.269531 76.527344 169.171875 77.429688 141.054688 91.496094 Z M 287.164062 145.082031 C 284.976562 139.988281 292.734375 136.640625 294.929688 141.742188 C 310.800781 178.679688 306.398438 221.242188 283.273438 254.136719 C 280.085938 258.675781 273.183594 253.804688 276.371094 249.273438 C 297.78125 218.816406 301.886719 179.28125 287.164062 145.082031 Z M 238.511719 282.578125 C 243.417969 280.007812 247.324219 287.484375 242.410156 290.058594 C 206.339844 308.980469 162.933594 307.523438 128.289062 286.113281 C 123.570312 283.195312 127.996094 276.007812 132.714844 278.929688 C 164.726562 298.714844 205.207031 300.09375 238.511719 282.578125 Z M 97.5625 243.695312 C 100.476562 248.425781 93.300781 252.859375 90.390625 248.132812 C 72.546875 219.140625 68.476562 183.785156 79.046875 151.375 C 80.777344 146.066406 88.800781 148.707031 87.074219 153.984375 C 77.285156 184.011719 81.039062 216.820312 97.5625 243.695312 Z M 147.855469 163.882812 L 272.710938 300.410156 C 274.398438 302.117188 276.402344 301.824219 277.984375 300.148438 L 291.746094 286.371094 C 292.96875 284.976562 292.707031 282.984375 291.15625 281.511719 L 154.96875 156.5 C 150.394531 152.304688 159.554688 148.679688 152.832031 129.453125 C 136.871094 83.804688 68.488281 67.46875 78.863281 115.3125 C 85.304688 145.023438 120.882812 170.957031 143.15625 162.636719 C 144.871094 162 146.738281 162.550781 147.855469 163.882812 Z M 170.132812 137.082031 C 164.914062 139.023438 161.976562 131.078125 167.195312 129.136719 C 179.351562 124.621094 192.71875 124.058594 205.269531 127.496094 C 210.625 128.960938 208.402344 137.101562 203.054688 135.636719 C 192.203125 132.667969 180.699219 133.160156 170.132812 137.082031 Z M 240.597656 173.234375 C 239.140625 167.875 247.261719 165.648438 248.722656 171.011719 C 252.949219 186.496094 251.117188 202.917969 243.550781 217.003906 C 240.921875 221.90625 233.488281 217.902344 236.117188 212.996094 C 242.632812 200.859375 244.25 186.542969 240.597656 173.234375 Z M 200.894531 239.960938 C 206.3125 238.722656 208.195312 246.960938 202.777344 248.207031 C 190.636719 250.996094 177.953125 250.089844 166.359375 245.589844 C 161.179688 243.582031 164.222656 235.703125 169.398438 237.714844 C 179.367188 241.578125 190.445312 242.371094 200.894531 239.960938 Z M 138.707031 206.945312 C 140.703125 212.132812 132.839844 215.171875 130.84375 209.992188 C 126.878906 199.726562 125.734375 188.6875 127.4375 177.777344 C 128.292969 172.273438 136.613281 173.582031 135.761719 179.0625 C 134.296875 188.453125 135.292969 198.097656 138.707031 206.945312 Z M 83.597656 121.585938 C 82.117188 117.582031 88.179688 115.3125 89.675781 119.320312 C 95.21875 134.1875 109.15625 147.804688 124.058594 152.929688 C 128.105469 154.316406 126 160.480469 121.949219 159.089844 C 105.21875 153.34375 89.859375 138.304688 83.597656 121.585938 Z M 83.597656 121.585938 " fill-opacity="1" fill-rule="nonzero"/></svg>